<mxfile host="app.diagrams.net" modified="2023-11-29T12:07:23.991Z" agent="Mozilla/5.0 (Windows NT 10.0; Win64; x64) AppleWebKit/537.36 (KHTML, like Gecko) Chrome/108.0.0.0 Safari/537.36" etag="DWM0aDrKPGs5Wn3QvuCJ" version="22.1.4" type="github">
  <diagram id="C5RBs43oDa-KdzZeNtuy" name="Page-1">
    <mxGraphModel dx="1434" dy="764" grid="1" gridSize="10" guides="1" tooltips="1" connect="1" arrows="1" fold="1" page="1" pageScale="1" pageWidth="827" pageHeight="1169" math="0" shadow="0">
      <root>
        <mxCell id="WIyWlLk6GJQsqaUBKTNV-0" />
        <mxCell id="WIyWlLk6GJQsqaUBKTNV-1" parent="WIyWlLk6GJQsqaUBKTNV-0" />
        <mxCell id="zTsqR_SSk_T-D4MaPYQQ-1" value="" style="edgeStyle=orthogonalEdgeStyle;rounded=0;orthogonalLoop=1;jettySize=auto;html=1;" edge="1" parent="WIyWlLk6GJQsqaUBKTNV-1" source="WIyWlLk6GJQsqaUBKTNV-3" target="zTsqR_SSk_T-D4MaPYQQ-0">
          <mxGeometry relative="1" as="geometry" />
        </mxCell>
        <mxCell id="WIyWlLk6GJQsqaUBKTNV-3" value="Add source" style="rounded=1;whiteSpace=wrap;html=1;fontSize=12;glass=0;strokeWidth=1;shadow=0;" parent="WIyWlLk6GJQsqaUBKTNV-1" vertex="1">
          <mxGeometry x="160" y="40" width="120" height="40" as="geometry" />
        </mxCell>
        <mxCell id="zTsqR_SSk_T-D4MaPYQQ-22" value="" style="edgeStyle=orthogonalEdgeStyle;rounded=0;orthogonalLoop=1;jettySize=auto;html=1;" edge="1" parent="WIyWlLk6GJQsqaUBKTNV-1" source="zTsqR_SSk_T-D4MaPYQQ-0" target="zTsqR_SSk_T-D4MaPYQQ-21">
          <mxGeometry relative="1" as="geometry" />
        </mxCell>
        <mxCell id="zTsqR_SSk_T-D4MaPYQQ-0" value="Add rss_subscribe" style="whiteSpace=wrap;html=1;rounded=1;glass=0;strokeWidth=1;shadow=0;" vertex="1" parent="WIyWlLk6GJQsqaUBKTNV-1">
          <mxGeometry x="160" y="120" width="120" height="60" as="geometry" />
        </mxCell>
        <mxCell id="zTsqR_SSk_T-D4MaPYQQ-5" value="" style="edgeStyle=orthogonalEdgeStyle;rounded=0;orthogonalLoop=1;jettySize=auto;html=1;" edge="1" parent="WIyWlLk6GJQsqaUBKTNV-1">
          <mxGeometry relative="1" as="geometry">
            <mxPoint x="220" y="390" as="sourcePoint" />
            <mxPoint x="220" y="470" as="targetPoint" />
          </mxGeometry>
        </mxCell>
        <mxCell id="zTsqR_SSk_T-D4MaPYQQ-10" value="Yes" style="edgeLabel;html=1;align=center;verticalAlign=middle;resizable=0;points=[];" vertex="1" connectable="0" parent="zTsqR_SSk_T-D4MaPYQQ-5">
          <mxGeometry x="-0.1302" y="1" relative="1" as="geometry">
            <mxPoint as="offset" />
          </mxGeometry>
        </mxCell>
        <mxCell id="zTsqR_SSk_T-D4MaPYQQ-7" value="" style="edgeStyle=orthogonalEdgeStyle;rounded=0;orthogonalLoop=1;jettySize=auto;html=1;" edge="1" parent="WIyWlLk6GJQsqaUBKTNV-1" target="zTsqR_SSk_T-D4MaPYQQ-6">
          <mxGeometry relative="1" as="geometry">
            <mxPoint x="220" y="530" as="sourcePoint" />
          </mxGeometry>
        </mxCell>
        <mxCell id="zTsqR_SSk_T-D4MaPYQQ-15" value="Yes" style="edgeLabel;html=1;align=center;verticalAlign=middle;resizable=0;points=[];" vertex="1" connectable="0" parent="zTsqR_SSk_T-D4MaPYQQ-7">
          <mxGeometry x="-0.0805" y="1" relative="1" as="geometry">
            <mxPoint as="offset" />
          </mxGeometry>
        </mxCell>
        <mxCell id="zTsqR_SSk_T-D4MaPYQQ-6" value="send content to MQ" style="whiteSpace=wrap;html=1;rounded=1;glass=0;strokeWidth=1;shadow=0;" vertex="1" parent="WIyWlLk6GJQsqaUBKTNV-1">
          <mxGeometry x="160" y="610" width="120" height="60" as="geometry" />
        </mxCell>
        <mxCell id="zTsqR_SSk_T-D4MaPYQQ-12" value="" style="edgeStyle=orthogonalEdgeStyle;rounded=0;orthogonalLoop=1;jettySize=auto;html=1;" edge="1" parent="WIyWlLk6GJQsqaUBKTNV-1" source="zTsqR_SSk_T-D4MaPYQQ-8" target="zTsqR_SSk_T-D4MaPYQQ-11">
          <mxGeometry relative="1" as="geometry" />
        </mxCell>
        <mxCell id="zTsqR_SSk_T-D4MaPYQQ-13" value="No" style="edgeLabel;html=1;align=center;verticalAlign=middle;resizable=0;points=[];" vertex="1" connectable="0" parent="zTsqR_SSk_T-D4MaPYQQ-12">
          <mxGeometry x="-0.12" y="3" relative="1" as="geometry">
            <mxPoint as="offset" />
          </mxGeometry>
        </mxCell>
        <mxCell id="zTsqR_SSk_T-D4MaPYQQ-8" value="validate feed url" style="rhombus;whiteSpace=wrap;html=1;rounded=1;glass=0;strokeWidth=1;shadow=0;" vertex="1" parent="WIyWlLk6GJQsqaUBKTNV-1">
          <mxGeometry x="180" y="320" width="80" height="80" as="geometry" />
        </mxCell>
        <mxCell id="zTsqR_SSk_T-D4MaPYQQ-11" value="write&amp;nbsp;&amp;nbsp;&lt;br&gt;parse_error_reason into rss_subscribe" style="whiteSpace=wrap;html=1;rounded=1;glass=0;strokeWidth=1;shadow=0;" vertex="1" parent="WIyWlLk6GJQsqaUBKTNV-1">
          <mxGeometry x="360" y="330" width="120" height="60" as="geometry" />
        </mxCell>
        <mxCell id="zTsqR_SSk_T-D4MaPYQQ-18" value="" style="edgeStyle=orthogonalEdgeStyle;rounded=0;orthogonalLoop=1;jettySize=auto;html=1;" edge="1" parent="WIyWlLk6GJQsqaUBKTNV-1" source="zTsqR_SSk_T-D4MaPYQQ-16" target="zTsqR_SSk_T-D4MaPYQQ-17">
          <mxGeometry relative="1" as="geometry" />
        </mxCell>
        <mxCell id="zTsqR_SSk_T-D4MaPYQQ-19" value="No" style="edgeLabel;html=1;align=center;verticalAlign=middle;resizable=0;points=[];" vertex="1" connectable="0" parent="zTsqR_SSk_T-D4MaPYQQ-18">
          <mxGeometry x="-0.18" y="-3" relative="1" as="geometry">
            <mxPoint as="offset" />
          </mxGeometry>
        </mxCell>
        <mxCell id="zTsqR_SSk_T-D4MaPYQQ-16" value="validate content" style="rhombus;whiteSpace=wrap;html=1;rounded=1;glass=0;strokeWidth=1;shadow=0;" vertex="1" parent="WIyWlLk6GJQsqaUBKTNV-1">
          <mxGeometry x="180" y="470" width="80" height="80" as="geometry" />
        </mxCell>
        <mxCell id="zTsqR_SSk_T-D4MaPYQQ-17" value="write&amp;nbsp;&amp;nbsp;&lt;br style=&quot;border-color: var(--border-color);&quot;&gt;into z_rss_exce" style="whiteSpace=wrap;html=1;rounded=1;glass=0;strokeWidth=1;shadow=0;" vertex="1" parent="WIyWlLk6GJQsqaUBKTNV-1">
          <mxGeometry x="360" y="480" width="120" height="60" as="geometry" />
        </mxCell>
        <mxCell id="zTsqR_SSk_T-D4MaPYQQ-23" value="" style="edgeStyle=orthogonalEdgeStyle;rounded=0;orthogonalLoop=1;jettySize=auto;html=1;" edge="1" parent="WIyWlLk6GJQsqaUBKTNV-1" source="zTsqR_SSk_T-D4MaPYQQ-21" target="zTsqR_SSk_T-D4MaPYQQ-8">
          <mxGeometry relative="1" as="geometry" />
        </mxCell>
        <mxCell id="zTsqR_SSk_T-D4MaPYQQ-21" value="run parser" style="rounded=1;whiteSpace=wrap;html=1;" vertex="1" parent="WIyWlLk6GJQsqaUBKTNV-1">
          <mxGeometry x="160" y="210" width="120" height="60" as="geometry" />
        </mxCell>
      </root>
    </mxGraphModel>
  </diagram>
</mxfile>
